<mxfile host="app.diagrams.net" agent="Mozilla/5.0 (Windows NT 10.0; Win64; x64) AppleWebKit/537.36 (KHTML, like Gecko) Chrome/131.0.0.0 Safari/537.36" version="24.8.8">
  <diagram name="Page-1" id="c3nk65IQRR4Nqv4QUoao">
    <mxGraphModel dx="1966" dy="635" grid="1" gridSize="10" guides="1" tooltips="1" connect="1" arrows="1" fold="1" page="1" pageScale="1" pageWidth="827" pageHeight="1169" math="0" shadow="0">
      <root>
        <mxCell id="0" />
        <mxCell id="1" parent="0" />
        <mxCell id="V9lXPsn15plv7wNFZdT3-42" value="User" style="shape=umlActor;verticalLabelPosition=bottom;verticalAlign=top;html=1;outlineConnect=0;" vertex="1" parent="1">
          <mxGeometry x="-810" y="225" width="30" height="60" as="geometry" />
        </mxCell>
        <mxCell id="V9lXPsn15plv7wNFZdT3-43" value="AI API" style="shape=umlActor;verticalLabelPosition=bottom;verticalAlign=top;html=1;outlineConnect=0;" vertex="1" parent="1">
          <mxGeometry x="-240" y="225" width="30" height="60" as="geometry" />
        </mxCell>
        <mxCell id="V9lXPsn15plv7wNFZdT3-48" value="Use Case Diagram" style="text;strokeColor=none;fillColor=none;html=1;fontSize=24;fontStyle=1;verticalAlign=middle;align=center;" vertex="1" parent="1">
          <mxGeometry x="-580" y="10" width="100" height="40" as="geometry" />
        </mxCell>
        <mxCell id="V9lXPsn15plv7wNFZdT3-53" value="Generate Recipes" style="ellipse;whiteSpace=wrap;html=1;" vertex="1" parent="1">
          <mxGeometry x="-493" y="220" width="140" height="70" as="geometry" />
        </mxCell>
        <mxCell id="V9lXPsn15plv7wNFZdT3-55" value="Save Recipe" style="ellipse;whiteSpace=wrap;html=1;" vertex="1" parent="1">
          <mxGeometry x="-670" y="350" width="120" height="60" as="geometry" />
        </mxCell>
        <mxCell id="V9lXPsn15plv7wNFZdT3-56" value="View Recipe Details" style="ellipse;whiteSpace=wrap;html=1;" vertex="1" parent="1">
          <mxGeometry x="-670" y="250" width="120" height="70" as="geometry" />
        </mxCell>
        <mxCell id="V9lXPsn15plv7wNFZdT3-58" value="System" style="shape=umlFrame;whiteSpace=wrap;html=1;pointerEvents=0;" vertex="1" parent="1">
          <mxGeometry x="-720" y="60" width="410" height="370" as="geometry" />
        </mxCell>
        <mxCell id="V9lXPsn15plv7wNFZdT3-59" value="Upload Image" style="ellipse;whiteSpace=wrap;html=1;" vertex="1" parent="1">
          <mxGeometry x="-655" y="80" width="110" height="60" as="geometry" />
        </mxCell>
        <mxCell id="V9lXPsn15plv7wNFZdT3-66" value="" style="endArrow=none;html=1;rounded=0;entryX=0.5;entryY=0.5;entryDx=0;entryDy=0;entryPerimeter=0;" edge="1" parent="1" source="V9lXPsn15plv7wNFZdT3-53" target="V9lXPsn15plv7wNFZdT3-43">
          <mxGeometry width="50" height="50" relative="1" as="geometry">
            <mxPoint x="-390" y="220" as="sourcePoint" />
            <mxPoint x="-340" y="170" as="targetPoint" />
          </mxGeometry>
        </mxCell>
        <mxCell id="V9lXPsn15plv7wNFZdT3-67" value="Confirm Detected Items" style="ellipse;whiteSpace=wrap;html=1;" vertex="1" parent="1">
          <mxGeometry x="-685" y="170" width="125" height="60" as="geometry" />
        </mxCell>
        <mxCell id="V9lXPsn15plv7wNFZdT3-69" value="" style="endArrow=none;dashed=1;html=1;dashPattern=1 3;strokeWidth=2;rounded=0;exitX=1;exitY=0;exitDx=0;exitDy=0;" edge="1" parent="1" source="V9lXPsn15plv7wNFZdT3-67" target="V9lXPsn15plv7wNFZdT3-70">
          <mxGeometry width="50" height="50" relative="1" as="geometry">
            <mxPoint x="-520" y="230" as="sourcePoint" />
            <mxPoint x="-500" y="190" as="targetPoint" />
          </mxGeometry>
        </mxCell>
        <mxCell id="V9lXPsn15plv7wNFZdT3-70" value="Add Missing Items" style="ellipse;whiteSpace=wrap;html=1;" vertex="1" parent="1">
          <mxGeometry x="-545" y="130" width="113" height="60" as="geometry" />
        </mxCell>
        <mxCell id="V9lXPsn15plv7wNFZdT3-74" value="" style="endArrow=none;html=1;rounded=0;exitX=0.5;exitY=0.5;exitDx=0;exitDy=0;exitPerimeter=0;entryX=0;entryY=0.5;entryDx=0;entryDy=0;" edge="1" parent="1" source="V9lXPsn15plv7wNFZdT3-42" target="V9lXPsn15plv7wNFZdT3-59">
          <mxGeometry width="50" height="50" relative="1" as="geometry">
            <mxPoint x="-560" y="250" as="sourcePoint" />
            <mxPoint x="-510" y="200" as="targetPoint" />
          </mxGeometry>
        </mxCell>
        <mxCell id="V9lXPsn15plv7wNFZdT3-75" value="" style="endArrow=none;html=1;rounded=0;exitX=0.5;exitY=0.5;exitDx=0;exitDy=0;exitPerimeter=0;entryX=0.014;entryY=0.642;entryDx=0;entryDy=0;entryPerimeter=0;" edge="1" parent="1" source="V9lXPsn15plv7wNFZdT3-42" target="V9lXPsn15plv7wNFZdT3-67">
          <mxGeometry width="50" height="50" relative="1" as="geometry">
            <mxPoint x="-560" y="250" as="sourcePoint" />
            <mxPoint x="-510" y="200" as="targetPoint" />
          </mxGeometry>
        </mxCell>
        <mxCell id="V9lXPsn15plv7wNFZdT3-76" value="" style="endArrow=none;html=1;rounded=0;exitX=0.5;exitY=0.5;exitDx=0;exitDy=0;exitPerimeter=0;" edge="1" parent="1" source="V9lXPsn15plv7wNFZdT3-42" target="V9lXPsn15plv7wNFZdT3-56">
          <mxGeometry width="50" height="50" relative="1" as="geometry">
            <mxPoint x="-560" y="250" as="sourcePoint" />
            <mxPoint x="-510" y="200" as="targetPoint" />
          </mxGeometry>
        </mxCell>
        <mxCell id="V9lXPsn15plv7wNFZdT3-77" value="" style="endArrow=none;html=1;rounded=0;entryX=0.032;entryY=0.369;entryDx=0;entryDy=0;entryPerimeter=0;exitX=0.5;exitY=0.5;exitDx=0;exitDy=0;exitPerimeter=0;" edge="1" parent="1" source="V9lXPsn15plv7wNFZdT3-42" target="V9lXPsn15plv7wNFZdT3-55">
          <mxGeometry width="50" height="50" relative="1" as="geometry">
            <mxPoint x="-560" y="250" as="sourcePoint" />
            <mxPoint x="-510" y="200" as="targetPoint" />
          </mxGeometry>
        </mxCell>
      </root>
    </mxGraphModel>
  </diagram>
</mxfile>
